<svg width="35" height="18" viewBox="0 0 35 18" fill="none" xmlns="http://www.w3.org/2000/svg">
<g clip-path="url(#clip0_193_553)">
<path d="M6.47839 1.17643e-06H-0.000170857V4.5H6.47839C5.19607 4.5 3.94255 4.89603 2.87635 5.63801C1.81014 6.38 0.979138 7.4346 0.488418 8.66848C-0.00230253 9.90235 -0.130697 11.2601 0.11947 12.5699C0.369637 13.8798 0.98713 15.083 1.89386 16.0274C2.8006 16.9717 3.95584 17.6148 5.21352 17.8754C6.47119 18.1359 7.77481 18.0022 8.95951 17.4911C10.1442 16.9801 11.1568 16.1146 11.8692 15.0041C12.5816 13.8936 12.9619 12.5881 12.9619 11.2526V18H17.2826V11.2526C17.2832 9.77467 17.0042 8.31113 16.4615 6.9456C15.9187 5.58007 15.1229 4.33933 14.1195 3.2943C13.1161 2.24926 11.9248 1.42043 10.6137 0.855176C9.30262 0.28992 7.89739 -0.000674744 6.47839 1.17643e-06V1.17643e-06ZM8.6412 13.5H4.32051V9H8.6412V13.5Z" fill="black"/>
<path d="M31.9731 14.6262H30.8916V15.7525H31.9731V14.6262Z" fill="black"/>
<path d="M21.6034 7.71435C21.6034 6.74749 22.3145 6.28978 23.3317 6.28978C23.6884 6.28709 24.0427 6.34976 24.3785 6.47492V6.39778C24.3785 5.88349 24.0674 5.58006 23.4601 5.58006C23.0535 5.57719 22.6505 5.65939 22.275 5.82178L21.9688 4.86006C22.4911 4.61333 23.0595 4.49037 23.6329 4.50006C23.8949 4.47959 24.1582 4.51461 24.4068 4.603C24.6555 4.69139 24.8844 4.83132 25.0797 5.01435C25.2443 5.20762 25.3702 5.4332 25.4499 5.67784C25.5296 5.92247 25.5615 6.18123 25.5439 6.43892V9.01035H24.3687V8.52692C24.2076 8.71656 24.0078 8.86626 23.7839 8.96503C23.56 9.06381 23.3178 9.10917 23.0749 9.09778C22.8887 9.11963 22.7001 9.10005 22.5217 9.04031C22.3433 8.98058 22.1791 8.88205 22.04 8.75126C21.9009 8.62048 21.79 8.46041 21.7147 8.28165C21.6395 8.10289 21.6015 7.90952 21.6034 7.71435V7.71435ZM24.3933 7.4212V7.20006C24.1496 7.08637 23.8852 7.02849 23.6181 7.03035C23.1243 7.03035 22.7786 7.24635 22.7786 7.64749C22.7786 7.99206 23.0502 8.19263 23.4403 8.19263C24.0181 8.22863 24.3933 7.90463 24.3933 7.43663V7.4212Z" fill="black"/>
<path d="M26.3734 2.92114H27.6524V4.04743H26.3734V2.92114ZM26.4031 4.536H27.6227V9H26.4031V4.536Z" fill="black"/>
<path d="M28.5461 2.92627H29.7609V9.00513H28.5461V2.92627Z" fill="black"/>
<path d="M30.4966 6.77829C30.4966 5.28686 31.4299 4.46914 32.4471 4.46914C32.7041 4.46392 32.9587 4.52171 33.1903 4.63785C33.4219 4.75399 33.624 4.92522 33.7803 5.13771V2.92114H35V9H33.7803V8.35714C33.6368 8.5873 33.4387 8.77498 33.2051 8.90202C32.9716 9.02906 32.7105 9.09115 32.4471 9.08228C31.4496 9.08228 30.4966 8.26971 30.4966 6.77829ZM33.8001 6.77829C33.8177 6.62457 33.8038 6.46871 33.7594 6.32098C33.7149 6.17326 33.6409 6.03702 33.5423 5.92125C33.4436 5.80549 33.3225 5.71282 33.1869 5.64936C33.0513 5.58589 32.9044 5.55308 32.7557 5.55308C32.6071 5.55308 32.4601 5.58589 32.3245 5.64936C32.189 5.71282 32.0679 5.80549 31.9692 5.92125C31.8705 6.03702 31.7965 6.17326 31.752 6.32098C31.7076 6.46871 31.6937 6.62457 31.7113 6.77829V6.77829C31.6937 6.932 31.7076 7.08786 31.752 7.23559C31.7965 7.38331 31.8705 7.51955 31.9692 7.63532C32.0679 7.75108 32.189 7.84375 32.3245 7.90721C32.4601 7.97068 32.6071 8.00349 32.7557 8.00349C32.9044 8.00349 33.0513 7.97068 33.1869 7.90721C33.3225 7.84375 33.4436 7.75108 33.5423 7.63532C33.6409 7.51955 33.7149 7.38331 33.7594 7.23559C33.8038 7.08786 33.8177 6.932 33.8001 6.77829Z" fill="black"/>
<path d="M21.6034 13.5462C21.5994 13.2387 21.6549 12.9335 21.7666 12.6489C21.8783 12.3642 22.044 12.1059 22.2537 11.8894C22.4634 11.6729 22.7129 11.5027 22.9872 11.3888C23.2615 11.275 23.555 11.2199 23.8502 11.2268C24.1706 11.2082 24.4909 11.2657 24.7868 11.3948C25.0828 11.524 25.3467 11.7216 25.5587 11.9725L24.818 12.8057C24.6992 12.6522 24.5488 12.5285 24.3778 12.4439C24.2068 12.3593 24.0197 12.316 23.8304 12.3171C23.6851 12.3236 23.5424 12.3604 23.411 12.4254C23.2796 12.4903 23.162 12.5822 23.0653 12.6954C22.9686 12.8086 22.8947 12.9408 22.848 13.0844C22.8013 13.2279 22.7827 13.3797 22.7935 13.5308V13.5308C22.7812 13.6875 22.8002 13.8451 22.8491 13.9938C22.8981 14.1425 22.976 14.279 23.078 14.3949C23.18 14.5108 23.3038 14.6034 23.4418 14.6671C23.5798 14.7309 23.7289 14.7642 23.8798 14.7651C24.0668 14.761 24.2509 14.7169 24.4208 14.6355C24.5907 14.5541 24.7427 14.4372 24.8674 14.292L25.5784 15.0377C25.368 15.3059 25.1005 15.5194 24.7971 15.6613C24.4937 15.8033 24.1627 15.8697 23.8304 15.8554C23.5375 15.8602 23.2467 15.8039 22.975 15.6897C22.7034 15.5754 22.4565 15.4057 22.2489 15.1904C22.0413 14.9752 21.8772 14.7188 21.7663 14.4364C21.6555 14.154 21.6001 13.8513 21.6034 13.5462V13.5462Z" fill="black"/>
<path d="M25.934 13.5464C25.9615 12.9253 26.2178 12.3391 26.6495 11.9097C27.0813 11.4803 27.6553 11.2407 28.2523 11.2407C28.8493 11.2407 29.4234 11.4803 29.8551 11.9097C30.2869 12.3391 30.5432 12.9253 30.5707 13.5464C30.5432 14.1675 30.2869 14.7537 29.8551 15.1831C29.4234 15.6125 28.8493 15.8521 28.2523 15.8521C27.6553 15.8521 27.0813 15.6125 26.6495 15.1831C26.2178 14.7537 25.9615 14.1675 25.934 13.5464ZM29.3905 13.5464C29.3965 13.3881 29.3718 13.2301 29.3181 13.0819C29.2643 12.9337 29.1824 12.7982 29.0774 12.6836C28.9724 12.569 28.8464 12.4775 28.7068 12.4145C28.5671 12.3516 28.4168 12.3185 28.2647 12.3173C28.1154 12.315 27.9673 12.3446 27.8295 12.4042C27.6917 12.4639 27.5671 12.5524 27.4634 12.6642C27.3598 12.7761 27.2792 12.9089 27.2268 13.0544C27.1743 13.1999 27.1511 13.3551 27.1586 13.5104V13.5104C27.1526 13.669 27.1772 13.8272 27.231 13.9757C27.2847 14.1242 27.3664 14.26 27.4714 14.375C27.5763 14.4901 27.7023 14.582 27.842 14.6455C27.9816 14.709 28.1321 14.7427 28.2844 14.7447C28.4324 14.7442 28.5788 14.7124 28.7147 14.6511C28.8505 14.5899 28.9729 14.5005 29.0746 14.3884C29.1762 14.2763 29.2549 14.1439 29.3058 13.9991C29.3567 13.8544 29.3788 13.7003 29.3708 13.5464H29.3905Z" fill="black"/>
</g>
<defs>
<clipPath id="clip0_193_553">
<rect width="35" height="18" fill="white"/>
</clipPath>
</defs>
</svg>
